<svg width="277" height="55" viewBox="0 0 277 55" fill="none" xmlns="http://www.w3.org/2000/svg">
<path d="M79.3488 42.05V12.9591H90.4852C92.5874 12.9591 94.3346 13.2906 95.7267 13.9535C97.1282 14.6069 98.1746 15.5018 98.8659 16.6381C99.5666 17.7745 99.917 19.0624 99.917 20.5018C99.917 21.6855 99.6897 22.6987 99.2352 23.5415C98.7806 24.3749 98.1698 25.0519 97.4028 25.5728C96.6357 26.0936 95.7787 26.4677 94.8318 26.6949V26.979C95.864 27.0358 96.8535 27.3531 97.8005 27.9307C98.757 28.4989 99.5382 29.3038 100.144 30.3455C100.75 31.3872 101.053 32.6466 101.053 34.1239C101.053 35.6296 100.689 36.9838 99.9596 38.1864C99.2304 39.3796 98.132 40.3218 96.6642 41.0131C95.1963 41.7044 93.3498 42.05 91.1244 42.05H79.3488ZM84.6187 37.6466H90.2863C92.1992 37.6466 93.577 37.2821 94.4198 36.5529C95.2721 35.8143 95.6982 34.8673 95.6982 33.712C95.6982 32.8502 95.4852 32.0737 95.059 31.3824C94.6329 30.6817 94.0268 30.1324 93.2409 29.7347C92.4549 29.3275 91.5174 29.1239 90.4284 29.1239H84.6187V37.6466ZM84.6187 25.3313H89.8318C90.7409 25.3313 91.56 25.1656 92.2892 24.8341C93.0183 24.4932 93.5912 24.015 94.0079 23.3995C94.434 22.7745 94.6471 22.0358 94.6471 21.1836C94.6471 20.0567 94.2494 19.1286 93.4539 18.3995C92.6679 17.6703 91.4984 17.3057 89.9454 17.3057H84.6187V25.3313ZM119.317 32.8739V20.2319H124.459V42.05H119.473V38.1722H119.246C118.753 39.3938 117.944 40.3929 116.817 41.1694C115.699 41.9459 114.322 42.3341 112.683 42.3341C111.253 42.3341 109.989 42.0169 108.891 41.3824C107.802 40.7385 106.949 39.8057 106.334 38.5841C105.718 37.3531 105.411 35.8663 105.411 34.1239V20.2319H110.553V33.3285C110.553 34.711 110.931 35.8095 111.689 36.6239C112.447 37.4383 113.441 37.8455 114.672 37.8455C115.43 37.8455 116.163 37.6608 116.874 37.2915C117.584 36.9222 118.166 36.373 118.621 35.6438C119.085 34.9052 119.317 33.9819 119.317 32.8739ZM139.235 50.6864C137.389 50.6864 135.802 50.4355 134.477 49.9336C133.151 49.4411 132.086 48.7783 131.281 47.9449C130.476 47.1116 129.917 46.1883 129.604 45.175L134.235 44.0529C134.444 44.479 134.747 44.9004 135.144 45.3171C135.542 45.7432 136.077 46.0936 136.749 46.3682C137.431 46.6523 138.288 46.7944 139.32 46.7944C140.779 46.7944 141.986 46.4393 142.943 45.729C143.899 45.0283 144.377 43.873 144.377 42.2631V38.1296H144.122C143.856 38.6599 143.468 39.2044 142.957 39.7631C142.455 40.3218 141.787 40.7906 140.954 41.1694C140.13 41.5482 139.093 41.7375 137.843 41.7375C136.167 41.7375 134.647 41.3446 133.283 40.5586C131.929 39.7631 130.85 38.5794 130.045 37.0074C129.249 35.426 128.852 33.4468 128.852 31.0699C128.852 28.6741 129.249 26.6523 130.045 25.0046C130.85 23.3474 131.934 22.0927 133.298 21.2404C134.661 20.3786 136.181 19.9478 137.857 19.9478C139.136 19.9478 140.187 20.1656 141.011 20.6012C141.844 21.0273 142.507 21.5434 142.999 22.1495C143.492 22.7461 143.866 23.3095 144.122 23.8398H144.406V20.2319H149.477V42.4052C149.477 44.2707 149.032 45.8143 148.141 47.0358C147.251 48.2574 146.034 49.1713 144.491 49.7773C142.947 50.3834 141.195 50.6864 139.235 50.6864ZM139.278 37.7035C140.367 37.7035 141.295 37.4383 142.062 36.908C142.829 36.3777 143.411 35.6154 143.809 34.6211C144.207 33.6268 144.406 32.4336 144.406 31.0415C144.406 29.6684 144.207 28.4658 143.809 27.4336C143.421 26.4014 142.843 25.6012 142.076 25.033C141.319 24.4554 140.386 24.1665 139.278 24.1665C138.132 24.1665 137.176 24.4648 136.408 25.0614C135.641 25.658 135.064 26.4771 134.676 27.5188C134.287 28.551 134.093 29.7252 134.093 31.0415C134.093 32.3768 134.287 33.5463 134.676 34.55C135.073 35.5444 135.656 36.3209 136.423 36.8796C137.199 37.4288 138.151 37.7035 139.278 37.7035Z" fill="#9AB162"/>
<path d="M171.018 42.05L162.808 12.9591H168.475L173.717 34.337H173.987L179.583 12.9591H184.739L190.35 34.3512H190.606L195.847 12.9591H201.515L193.305 42.05H188.106L182.282 21.6381H182.055L176.217 42.05H171.018ZM212.232 42.4762C210.102 42.4762 208.255 42.0074 206.693 41.0699C205.13 40.1324 203.918 38.8209 203.056 37.1353C202.204 35.4497 201.778 33.48 201.778 31.2262C201.778 28.9724 202.204 26.998 203.056 25.3029C203.918 23.6078 205.13 22.2915 206.693 21.354C208.255 20.4165 210.102 19.9478 212.232 19.9478C214.363 19.9478 216.21 20.4165 217.772 21.354C219.335 22.2915 220.542 23.6078 221.394 25.3029C222.256 26.998 222.687 28.9724 222.687 31.2262C222.687 33.48 222.256 35.4497 221.394 37.1353C220.542 38.8209 219.335 40.1324 217.772 41.0699C216.21 42.0074 214.363 42.4762 212.232 42.4762ZM212.261 38.3569C213.416 38.3569 214.382 38.0396 215.158 37.4052C215.935 36.7612 216.513 35.8995 216.891 34.8199C217.28 33.7404 217.474 32.5377 217.474 31.212C217.474 29.8768 217.28 28.6694 216.891 27.5898C216.513 26.5008 215.935 25.6343 215.158 24.9904C214.382 24.3464 213.416 24.0245 212.261 24.0245C211.077 24.0245 210.092 24.3464 209.306 24.9904C208.53 25.6343 207.947 26.5008 207.559 27.5898C207.18 28.6694 206.991 29.8768 206.991 31.212C206.991 32.5377 207.18 33.7404 207.559 34.8199C207.947 35.8995 208.53 36.7612 209.306 37.4052C210.092 38.0396 211.077 38.3569 212.261 38.3569ZM227.051 42.05V20.2319H232.037V23.8682H232.264C232.662 22.6088 233.344 21.6381 234.31 20.9563C235.285 20.265 236.398 19.9194 237.648 19.9194C237.932 19.9194 238.249 19.9336 238.6 19.962C238.959 19.9809 239.258 20.0141 239.494 20.0614V24.7915C239.277 24.7158 238.931 24.6495 238.457 24.5927C237.993 24.5264 237.544 24.4932 237.108 24.4932C236.171 24.4932 235.328 24.6968 234.58 25.104C233.841 25.5018 233.259 26.0557 232.832 26.766C232.406 27.4762 232.193 28.2953 232.193 29.2233V42.05H227.051ZM248.053 12.9591V42.05H242.911V12.9591H248.053ZM261.437 42.4336C259.723 42.4336 258.189 41.9932 256.835 41.1125C255.48 40.2319 254.41 38.9535 253.624 37.2773C252.838 35.6012 252.445 33.5652 252.445 31.1694C252.445 28.7451 252.843 26.6997 253.639 25.033C254.444 23.3569 255.528 22.0927 256.891 21.2404C258.255 20.3786 259.775 19.9478 261.451 19.9478C262.729 19.9478 263.781 20.1656 264.604 20.6012C265.428 21.0273 266.082 21.5434 266.565 22.1495C267.048 22.7461 267.422 23.3095 267.687 23.8398H267.9V12.9591H273.056V42.05H267.999V38.6125H267.687C267.422 39.1429 267.038 39.7063 266.536 40.3029C266.034 40.89 265.372 41.3919 264.548 41.8086C263.724 42.2252 262.687 42.4336 261.437 42.4336ZM262.872 38.2148C263.961 38.2148 264.889 37.9213 265.656 37.3341C266.423 36.7375 267.005 35.909 267.403 34.8483C267.801 33.7877 267.999 32.5519 267.999 31.141C267.999 29.73 267.801 28.5036 267.403 27.462C267.015 26.4203 266.437 25.6107 265.67 25.033C264.912 24.4554 263.979 24.1665 262.872 24.1665C261.726 24.1665 260.769 24.4648 260.002 25.0614C259.235 25.658 258.658 26.4819 258.269 27.533C257.881 28.5841 257.687 29.7868 257.687 31.141C257.687 32.5046 257.881 33.7214 258.269 34.7915C258.667 35.8521 259.249 36.6902 260.016 37.3057C260.793 37.9118 261.745 38.2148 262.872 38.2148Z" fill="#262626"/>
<path d="M20.0282 18.0266C18.3128 16.8405 16.6817 14.5382 16.1385 14.211C15.5953 13.8838 12.3678 21.1979 11.543 26.2243C10.7315 31.1697 10.9244 35.0024 11.9712 39.0953C13.018 43.1881 15.9073 47.0997 20.0282 50.2429C22.9822 52.4959 28.214 54.1952 28.4816 54.1203C28.7492 54.0455 26.9002 20.5581 26.9002 20.5581C26.9002 20.5581 22.4367 19.6918 20.0282 18.0266Z" fill="#A1C057" stroke="#A1C057"/>
<path d="M37.7413 18.0266C39.4567 16.8405 41.0879 14.5382 41.6311 14.211C42.1743 13.8838 45.4018 21.1979 46.2266 26.2243C47.0381 31.1697 46.8451 35.0024 45.7984 39.0953C44.7516 43.1881 41.8623 47.0997 37.7413 50.2429C34.7874 52.4959 29.5556 54.1952 29.288 54.1203C29.0204 54.0455 30.8694 20.5581 30.8694 20.5581C30.8694 20.5581 35.3329 19.6918 37.7413 18.0266Z" fill="#A1C057" stroke="#A1C057"/>
<path d="M20.9906 16.0497C18.8446 14.5901 17.0732 12.1525 17.0732 12.1525C17.0732 12.1525 17.0031 9.82442 17.3801 8.42687C17.7544 7.03957 18.9484 5.16409 18.9484 5.16409L20.6313 8.05615L24.6093 7.18474L26.2923 4.01598L25.183 1.23166C25.183 1.23166 27.487 0.780794 28.9755 0.79874C30.3219 0.814972 32.402 1.23166 32.402 1.23166L31.0722 4.01598L32.402 7.18474L36.4502 8.05615L38.6952 5.16409C38.6952 5.16409 39.8758 7.04266 40.2514 8.42687C40.6247 9.80301 40.583 12.0939 40.583 12.0939C40.583 12.0939 38.4424 14.9599 36.4502 16.2229C34.4581 17.486 28.9755 18.8216 28.9755 18.8216C28.9755 18.8216 23.1366 17.5093 20.9906 16.0497Z" fill="#252525" stroke="#252525"/>
<path d="M44.3649 14.9494L43.0984 12.7851L44.7947 10.7728L46.6323 4.38201L49.0776 3.15753L50.3669 5.84132L48.307 13.0205L45.2245 16.6771L44.3649 14.9494Z" fill="#252525" stroke="#252525"/>
<path d="M13.2876 14.842L14.5541 12.6776L12.8578 10.6653L11.0202 4.27453L8.57489 3.05005L7.28556 5.73384L9.34552 12.913L12.428 16.5696L13.2876 14.842Z" fill="#252525" stroke="#252525"/>
<path d="M9.53392 26.9394C9.65614 25.8716 10.0249 24.239 10.0249 24.239L6.24028 25.6327L1.52051 31.09L1.89401 33.6073L4.06714 34.203L8.39643 29.5143L9.39809 29.1876C9.39809 29.1876 9.43402 27.8121 9.53392 26.9394Z" fill="#252525" stroke="#252525"/>
<path d="M48.3799 27.2546C48.2576 26.1868 47.8889 24.5541 47.8889 24.5541L51.6732 25.9479L56.3925 31.4052L56.019 33.9225L53.8461 34.5181L49.5172 29.8295L48.5157 29.5028C48.5157 29.5028 48.4797 28.1273 48.3799 27.2546Z" fill="#252525" stroke="#252525"/>
<path d="M10.7103 41.7348C10.3712 40.723 10.0622 39.0625 10.0622 39.0625L7.33083 42.1278L5.27074 49.4372L6.65957 51.8475L8.90484 51.114L10.8723 44.4857L11.5205 43.6997C11.5205 43.6997 10.9757 42.5265 10.7103 41.7348Z" fill="#252525" stroke="#252525"/>
<path d="M47.1282 41.7348C47.4675 40.723 47.7765 39.0625 47.7765 39.0625L50.5084 42.1278L52.5688 49.4372L51.1797 51.8475L48.9341 51.114L46.9662 44.4857L46.3179 43.6997C46.3179 43.6997 46.8628 42.5265 47.1282 41.7348Z" fill="#252525" stroke="#252525"/>
</svg>
